<svg width="12" height="12" viewBox="0 0 12 12" fill="none" xmlns="http://www.w3.org/2000/svg">
<path fill-rule="evenodd" clip-rule="evenodd" d="M6 0C6.19891 0 6.38968 0.0790178 6.53033 0.21967C6.67098 0.360322 6.75 0.551088 6.75 0.75V9.4395L9.969 6.219C10.0387 6.14927 10.1215 6.09395 10.2126 6.05621C10.3037 6.01848 10.4014 5.99905 10.5 5.99905C10.5986 5.99905 10.6963 6.01848 10.7874 6.05621C10.8785 6.09395 10.9613 6.14927 11.031 6.219C11.1007 6.28873 11.156 6.37152 11.1938 6.46262C11.2315 6.55373 11.2509 6.65138 11.2509 6.75C11.2509 6.84862 11.2315 6.94627 11.1938 7.03738C11.156 7.12848 11.1007 7.21127 11.031 7.281L6.531 11.781C6.46133 11.8508 6.37857 11.9063 6.28745 11.9441C6.19633 11.9819 6.09865 12.0013 6 12.0013C5.90135 12.0013 5.80367 11.9819 5.71255 11.9441C5.62143 11.9063 5.53867 11.8508 5.469 11.781L0.969002 7.281C0.89927 7.21127 0.843955 7.12848 0.806216 7.03738C0.768478 6.94627 0.749054 6.84862 0.749054 6.75C0.749054 6.65138 0.768478 6.55373 0.806216 6.46262C0.843955 6.37152 0.89927 6.28873 0.969002 6.219C1.10983 6.07817 1.30084 5.99905 1.5 5.99905C1.59862 5.99905 1.69627 6.01848 1.78738 6.05621C1.87849 6.09395 1.96127 6.14927 2.031 6.219L5.25 9.4395V0.75C5.25 0.551088 5.32902 0.360322 5.46967 0.21967C5.61032 0.0790178 5.80109 0 6 0Z" fill="black"/>
</svg>
