<svg width="17" height="13" viewBox="0 0 17 13" fill="none" xmlns="http://www.w3.org/2000/svg">
<path d="M0.952148 12.5381L0.65918 12.001C0.952148 10.8128 1.3265 9.54329 1.78223 8.19238C2.23796 6.8252 2.73438 5.46615 3.27148 4.11523C3.80859 2.74805 4.3457 1.47852 4.88281 0.306641H7.86133C7.53581 1.5599 7.20215 2.91081 6.86035 4.35938C6.53483 5.80794 6.23372 7.24837 5.95703 8.68066C5.68034 10.0967 5.45247 11.3825 5.27344 12.5381H0.952148ZM15.9668 0.306641L16.333 0.84375C16.04 2.0319 15.6657 3.30957 15.21 4.67676C14.7542 6.02767 14.2578 7.37858 13.7207 8.72949C13.1836 10.0804 12.6465 11.3499 12.1094 12.5381H9.13086C9.375 11.6104 9.61914 10.6175 9.86328 9.55957C10.1237 8.50163 10.3678 7.42741 10.5957 6.33691C10.8236 5.24642 11.027 4.18848 11.2061 3.16309C11.4014 2.1377 11.5641 1.18555 11.6943 0.306641H15.9668Z" fill="#567C82"/>
</svg>
