<svg width="26" height="21" viewBox="0 0 26 21" fill="none" xmlns="http://www.w3.org/2000/svg">
<path d="M21.75 0.832031H4.25C3.25544 0.832031 2.30161 1.21395 1.59835 1.89377C0.895088 2.57359 0.5 3.49562 0.5 4.45703V16.5404C0.5 17.5018 0.895088 18.4238 1.59835 19.1036C2.30161 19.7834 3.25544 20.1654 4.25 20.1654H21.75C22.7446 20.1654 23.6984 19.7834 24.4017 19.1036C25.1049 18.4238 25.5 17.5018 25.5 16.5404V4.45703C25.5 3.49562 25.1049 2.57359 24.4017 1.89377C23.6984 1.21395 22.7446 0.832031 21.75 0.832031V0.832031ZM20.9125 3.2487L13 8.98828L5.0875 3.2487H20.9125ZM21.75 17.7487H4.25C3.91848 17.7487 3.60054 17.6214 3.36612 17.3948C3.1317 17.1682 3 16.8608 3 16.5404V4.75911L12.25 11.4654C12.4664 11.6222 12.7295 11.707 13 11.707C13.2705 11.707 13.5336 11.6222 13.75 11.4654L23 4.75911V16.5404C23 16.8608 22.8683 17.1682 22.6339 17.3948C22.3995 17.6214 22.0815 17.7487 21.75 17.7487Z" fill="#EEEEEE"/>
</svg>
