<svg width="56" height="52" viewBox="0 0 56 52" fill="none" xmlns="http://www.w3.org/2000/svg">
<path d="M19.8711 2.54566C14.6 2.54849 9.54573 4.63948 5.81948 8.35891C2.09322 12.0783 -7.66422e-07 17.1218 0 22.3804C-3.06653e-08 27.6406 2.09439 32.6853 5.8225 36.405C9.55061 40.1247 14.6071 42.2147 19.8797 42.2152C25.1527 42.2152 30.2098 40.1255 33.9383 36.4058C37.6669 32.686 39.7616 27.641 39.7616 22.3804C39.7616 19.775 39.247 17.195 38.2473 14.788C37.2477 12.381 35.7824 10.194 33.9353 8.3521C32.0882 6.51016 29.8954 5.04932 27.4822 4.05303C25.0691 3.05675 22.4828 2.54453 19.8711 2.54566ZM22.7016 37.817C18.596 37.817 14.6584 36.1901 11.7551 33.294C8.85176 30.3979 7.22039 26.47 7.21982 22.374C7.22039 18.2779 8.85169 14.3497 11.755 11.4533C14.6582 8.5569 18.5958 6.92947 22.7016 6.9289C26.8073 6.92947 30.7446 8.55697 33.6475 11.4534C36.5504 14.3499 38.1812 18.2781 38.1812 22.374C38.1812 26.4698 36.5504 30.3977 33.6474 33.2939C30.7444 36.19 26.8071 37.817 22.7016 37.817Z" fill="#467495"/>
<path d="M29.7435 52C36.6554 52 43.2843 49.2607 48.1719 44.3848C53.0594 39.5088 55.8052 32.8956 55.8052 26C55.8054 22.5856 55.1315 19.2045 53.8219 16.0499C52.5123 12.8953 50.5926 10.029 48.1725 7.6146C45.7524 5.20022 42.8792 3.28509 39.7172 1.97856C36.5551 0.672041 33.166 -0.000280879 29.7435 8.80266e-08C26.3209 -0.000280879 22.9318 0.672041 19.7697 1.97856C16.6076 3.28509 13.7345 5.20022 11.3144 7.6146C8.8943 10.029 6.97462 12.8953 5.66499 16.0499C4.35537 19.2045 3.68145 22.5856 3.68173 26C3.68173 29.4144 4.35584 32.7953 5.66557 35.9498C6.97529 39.1042 8.89498 41.9705 11.315 44.3848C13.7351 46.7991 16.6081 48.7142 19.7701 50.0209C22.932 51.3275 26.321 52 29.7435 52ZM26.036 5.75449C31.4182 5.75449 36.5799 7.88749 40.3857 11.6843C44.1915 15.481 46.3295 20.6306 46.3295 26C46.3295 31.3694 44.1915 36.519 40.3857 40.3157C36.5799 44.1125 31.4182 46.2455 26.036 46.2455C20.6538 46.2455 15.492 44.1125 11.6862 40.3157C7.88046 36.519 5.74241 31.3694 5.74241 26C5.74241 20.6306 7.88046 15.481 11.6862 11.6843C15.492 7.88749 20.6538 5.75449 26.036 5.75449Z" fill="#263B58"/>
<path d="M25.7553 10.6853C21.8819 10.6853 18.1671 12.2204 15.4282 14.9528C12.6893 17.6852 11.1506 21.3912 11.1506 25.2555C11.1506 27.1689 11.5283 29.0635 12.2623 30.8312C12.9963 32.599 14.072 34.2052 15.4282 35.5582C16.7844 36.9111 18.3944 37.9844 20.1663 38.7166C21.9383 39.4488 23.8374 39.8257 25.7553 39.8257C27.6734 39.8259 29.5728 39.4493 31.345 38.7172C33.1172 37.9851 34.7274 36.9119 36.0839 35.5589C37.4403 34.2059 38.5162 32.5996 39.2503 30.8317C39.9844 29.0639 40.3622 27.169 40.3622 25.2555C40.3622 23.3419 39.9844 21.4471 39.2503 19.6792C38.5162 17.9113 37.4403 16.305 36.0839 14.952C34.7274 13.5991 33.1172 12.5259 31.345 11.7938C29.5728 11.0617 27.6734 10.685 25.7553 10.6853Z" fill="#9DC8CF"/>
</svg>
