<svg width="25" height="25" viewBox="0 0 25 25" fill="none" xmlns="http://www.w3.org/2000/svg">
<path d="M5.70913 2.07546C5.61689 1.95681 5.50046 1.85914 5.36758 1.78894C5.23469 1.71874 5.08838 1.67762 4.93838 1.66831C4.78838 1.659 4.63811 1.68171 4.49757 1.73494C4.35702 1.78816 4.2294 1.87069 4.1232 1.97702L2.50757 3.59421C1.75288 4.35046 1.47476 5.42077 1.80445 6.35984C3.17279 10.2467 5.39866 13.7756 8.31695 16.6848C11.2262 19.6031 14.7551 21.8289 18.6419 23.1973C19.581 23.527 20.6513 23.2489 21.4076 22.4942L23.0232 20.8786C23.1295 20.7724 23.2121 20.6448 23.2653 20.5042C23.3185 20.3637 23.3412 20.2134 23.3319 20.0634C23.3226 19.9134 23.2815 19.7671 23.2113 19.6342C23.1411 19.5013 23.0434 19.3849 22.9248 19.2926L19.3201 16.4895C19.1933 16.3912 19.0459 16.323 18.8889 16.2899C18.7319 16.2569 18.5695 16.26 18.4138 16.2989L14.9919 17.1536C14.5352 17.2677 14.0567 17.2617 13.603 17.136C13.1492 17.0103 12.7358 16.7693 12.4029 16.4364L8.56538 12.5973C8.23221 12.2646 7.99089 11.8512 7.86494 11.3975C7.73898 10.9438 7.73267 10.4652 7.84663 10.0083L8.70288 6.5864C8.7418 6.43077 8.74487 6.26833 8.71184 6.11134C8.67882 5.95435 8.61058 5.80691 8.51226 5.68015L5.70913 2.07546ZM2.94351 0.798898C3.21694 0.525382 3.54543 0.313165 3.90716 0.176338C4.2689 0.0395111 4.65561 -0.0187941 5.04161 0.00529381C5.4276 0.0293817 5.80406 0.135312 6.14598 0.31605C6.4879 0.496787 6.78746 0.748198 7.02476 1.05359L9.82788 4.65671C10.3419 5.31765 10.5232 6.17859 10.3201 6.99109L9.46538 10.413C9.4212 10.5902 9.42358 10.7758 9.47231 10.9519C9.52105 11.1279 9.61447 11.2884 9.74351 11.4176L13.5826 15.2567C13.712 15.386 13.8727 15.4796 14.0491 15.5283C14.2254 15.5771 14.4114 15.5793 14.5888 15.5348L18.0091 14.6801C18.4101 14.5799 18.8286 14.5721 19.233 14.6574C19.6374 14.7426 20.0172 14.9187 20.3435 15.1723L23.9466 17.9755C25.2419 18.9833 25.3607 20.8973 24.2013 22.0551L22.5857 23.6708C21.4294 24.827 19.7013 25.3348 18.0904 24.7676C13.9672 23.3169 10.2236 20.9565 7.13726 17.8614C4.0424 14.7755 1.68196 11.0324 0.231009 6.90984C-0.334616 5.30046 0.173197 3.57077 1.32945 2.41452L2.94507 0.798898H2.94351Z" fill="#EEEEEE"/>
</svg>
